<?xml version="1.0" standalone="no"?><svg xmlns="http://www.w3.org/2000/svg" viewBox="0 0 1440 320"><path fill="#0099ff" fill-opacity="1" d="M0,288L18.5,277.3C36.9,267,74,245,111,234.7C147.7,224,185,224,222,229.3C258.5,235,295,245,332,229.3C369.2,213,406,171,443,128C480,85,517,43,554,32C590.8,21,628,43,665,90.7C701.5,139,738,213,775,208C812.3,203,849,117,886,106.7C923.1,96,960,160,997,186.7C1033.8,213,1071,203,1108,186.7C1144.6,171,1182,149,1218,122.7C1255.4,96,1292,64,1329,90.7C1366.2,117,1403,203,1422,245.3L1440,288L1440,320L1421.5,320C1403.1,320,1366,320,1329,320C1292.3,320,1255,320,1218,320C1181.5,320,1145,320,1108,320C1070.8,320,1034,320,997,320C960,320,923,320,886,320C849.2,320,812,320,775,320C738.5,320,702,320,665,320C627.7,320,591,320,554,320C516.9,320,480,320,443,320C406.2,320,369,320,332,320C295.4,320,258,320,222,320C184.6,320,148,320,111,320C73.8,320,37,320,18,320L0,320Z"></path></svg>