<?xml version="1.0" standalone="no"?><svg xmlns="http://www.w3.org/2000/svg" viewBox="0 0 1440 320"><path fill="#0099ff" fill-opacity="1" d="M0,32L18.5,74.7C36.9,117,74,203,111,218.7C147.7,235,185,181,222,138.7C258.5,96,295,64,332,74.7C369.2,85,406,139,443,149.3C480,160,517,128,554,101.3C590.8,75,628,53,665,69.3C701.5,85,738,139,775,149.3C812.3,160,849,128,886,112C923.1,96,960,96,997,117.3C1033.8,139,1071,181,1108,213.3C1144.6,245,1182,267,1218,245.3C1255.4,224,1292,160,1329,122.7C1366.2,85,1403,75,1422,69.3L1440,64L1440,320L1421.5,320C1403.1,320,1366,320,1329,320C1292.3,320,1255,320,1218,320C1181.5,320,1145,320,1108,320C1070.8,320,1034,320,997,320C960,320,923,320,886,320C849.2,320,812,320,775,320C738.5,320,702,320,665,320C627.7,320,591,320,554,320C516.9,320,480,320,443,320C406.2,320,369,320,332,320C295.4,320,258,320,222,320C184.6,320,148,320,111,320C73.8,320,37,320,18,320L0,320Z"></path></svg>